<svg version="1.1" id="Layer_1" xmlns="http://www.w3.org/2000/svg" xmlns:xlink="http://www.w3.org/1999/xlink" x="0px" y="0px"
	 width="100%" viewBox="0 0 400 384" enable-background="new 0 0 400 384" xml:space="preserve">
<path fill="#000000" opacity="1.000000" stroke="none" 
	d="
M156.000000,303.950897 
	C123.289619,303.951263 91.079231,303.951263 58.868851,303.951263 
	C58.614079,303.392426 58.359306,302.833588 58.104534,302.274780 
	C106.369720,218.586258 154.634903,134.897766 202.900085,51.209255 
	C203.498108,51.069931 204.096130,50.930607 204.694153,50.791279 
	C253.005081,134.535034 301.316010,218.278793 349.626953,302.022552 
	C349.406281,302.617645 349.185577,303.212738 348.964905,303.807831 
	C284.809937,303.855377 220.654968,303.902954 156.000000,303.950897 
M228.123047,259.674225 
	C243.595627,232.841522 259.068207,206.008835 275.278656,177.896561 
	C271.163452,177.896561 268.867523,177.908340 266.571686,177.894760 
	C240.279861,177.739212 213.987320,177.651291 187.696457,177.394455 
	C172.054718,177.241684 156.419922,178.634338 140.772018,177.498978 
	C138.549988,177.337769 136.071640,177.250229 133.895065,180.177185 
	C156.936066,220.141632 180.110580,260.337646 203.929474,301.651306 
	C212.352859,287.043640 220.060242,273.677643 228.123047,259.674225 
z"/>
</svg>