<svg version="1.1" id="Layer_1" xmlns="http://www.w3.org/2000/svg" xmlns:xlink="http://www.w3.org/1999/xlink" x="0px" y="0px"
	 width="100%" viewBox="0 0 1025 190" enable-background="new 0 0 1025 190" xml:space="preserve">
<path fill="#FEFEFE" opacity="0.000000" stroke="none" 
	d="
M707.000000,191.000000 
	C471.333344,191.000000 236.166672,191.000000 1.000000,191.000000 
	C1.000000,127.666664 1.000000,64.333336 1.000000,1.000000 
	C342.666656,1.000000 684.333313,1.000000 1026.000000,1.000000 
	C1026.000000,64.333336 1026.000000,127.666664 1026.000000,191.000000 
	C919.833313,191.000000 813.666687,191.000000 707.000000,191.000000 
M698.835083,60.709343 
	C694.568298,55.415211 690.947388,49.390377 685.924988,44.951122 
	C661.802734,23.629698 633.685364,18.857395 603.854248,29.078943 
	C548.192383,48.151321 539.593872,115.004852 571.729492,151.071503 
	C590.951904,172.645325 615.608948,179.652954 643.580078,176.132645 
	C665.253113,173.404999 683.329346,163.638412 695.699707,145.353867 
	C714.030640,118.259064 714.392517,90.029144 698.835083,60.709343 
M809.941895,158.776123 
	C792.377197,158.776123 774.812500,158.776123 756.830078,158.776123 
	C756.830078,156.882874 756.830078,155.080048 756.830017,153.277206 
	C756.829651,136.112625 756.888855,118.947472 756.728638,101.784393 
	C756.714172,100.226990 755.398071,97.418739 754.501648,97.341705 
	C749.453857,96.907921 744.349548,97.132385 739.399170,97.132385 
	C739.399170,123.853027 739.399170,149.766983 739.399170,176.114716 
	C741.404663,176.114716 743.041443,176.114777 744.678162,176.114716 
	C762.176025,176.114105 779.677307,176.313583 797.170227,176.018677 
	C804.628845,175.892944 812.221863,175.456757 819.494385,173.927643 
	C866.330444,164.080017 888.895203,120.697792 875.692810,77.595047 
	C865.929688,45.720573 842.081299,28.773752 809.462524,26.134777 
	C786.610840,24.285992 763.512756,25.479834 740.524536,25.347963 
	C740.102112,25.345541 739.677307,25.756397 739.486084,25.854782 
	C739.486084,31.303331 739.486084,36.533672 739.486084,42.057369 
	C752.761169,42.057369 765.583252,41.913784 778.400635,42.100452 
	C789.709717,42.265160 801.201782,41.611732 812.287598,43.370667 
	C865.346497,51.789295 871.172058,107.151566 851.229431,135.338211 
	C841.353821,149.296402 827.218384,155.940079 809.941895,158.776123 
M233.500336,159.590576 
	C218.421402,159.590576 203.342468,159.590576 187.111420,159.590576 
	C189.179077,156.822067 190.497787,154.987305 191.886490,153.207123 
	C220.376099,116.686256 248.732620,80.059746 277.514374,43.770496 
	C282.087860,38.004032 282.738434,32.374828 281.715973,25.536501 
	C242.189987,25.536501 202.781693,25.536501 163.232147,25.536501 
	C163.232147,31.054134 163.232147,36.398323 163.232147,42.224403 
	C194.228256,42.224403 224.793076,42.224403 256.200134,42.224403 
	C254.894562,44.101910 254.138153,45.309811 253.265625,46.427032 
	C223.935257,83.983391 194.710419,121.623451 165.125397,158.978226 
	C160.804016,164.434509 161.114182,169.754700 161.656067,175.808075 
	C202.617981,175.808075 243.191849,175.808075 283.984070,175.808075 
	C283.984070,170.389069 283.984070,165.283249 283.984070,159.590668 
	C267.400391,159.590668 250.950378,159.590668 233.500336,159.590576 
M509.033020,174.600082 
	C522.268616,170.762589 533.868530,164.290573 543.135986,153.517166 
	C539.238403,149.822861 535.439209,146.221832 531.643555,142.624100 
	C505.510529,170.098892 462.291016,162.282867 443.477539,142.608887 
	C422.626404,120.804016 421.308624,84.763535 440.525360,62.144062 
	C450.610992,50.272591 463.629822,43.758129 478.903900,41.850807 
	C499.207123,39.315487 517.212585,44.424706 530.390930,57.854694 
	C534.873596,54.226292 538.941101,50.933899 543.121216,47.550369 
	C528.227173,31.050171 509.514557,24.435881 488.362366,24.291161 
	C459.906403,24.096470 436.834290,35.065895 420.970428,59.224510 
	C410.451355,75.243607 407.590576,93.142876 410.110321,111.887360 
	C413.113434,134.227234 423.791412,152.176788 442.856628,164.377594 
	C462.988068,177.260727 485.114075,179.622559 509.033020,174.600082 
M48.763344,124.347267 
	C59.976048,99.574928 71.188751,74.802597 82.857269,49.023216 
	C88.181747,60.682182 93.082047,71.378250 97.954109,82.087166 
	C111.599747,112.080658 125.203575,142.093292 138.953171,172.039032 
	C139.713791,173.695648 141.548828,175.857071 143.048904,175.995621 
	C148.307587,176.481354 153.638611,176.184021 159.548782,176.184021 
	C158.829544,174.288666 158.397293,172.908371 157.797913,171.604919 
	C136.798447,125.938148 115.582619,80.368797 94.973763,34.526558 
	C91.657478,27.149824 87.915154,23.970980 79.883041,25.110685 
	C76.685837,25.564346 74.969643,26.225576 73.570442,29.282335 
	C51.820049,76.799225 29.924746,124.249779 8.080194,171.723602 
	C7.498501,172.987778 7.110021,174.340866 6.435259,176.190140 
	C11.999431,176.190140 16.823198,176.019562 21.627068,176.255005 
	C24.447039,176.393204 25.717056,175.243210 26.812803,172.787155 
	C33.932491,156.828796 41.203838,140.938110 48.763344,124.347267 
M309.550751,98.499817 
	C309.550751,124.232864 309.550751,149.965912 309.550751,175.786575 
	C315.714996,175.786575 321.269165,175.786575 326.751648,175.786575 
	C326.751648,125.464943 326.751648,75.481369 326.751648,25.458828 
	C320.920166,25.458828 315.488220,25.458828 309.550598,25.458828 
	C309.550598,49.640713 309.550598,73.570259 309.550751,98.499817 
M1008.738953,102.352333 
	C1008.738953,101.020729 1008.739014,99.689117 1008.738892,98.357513 
	C1008.738281,91.297707 1008.738281,91.295036 1001.883728,91.294777 
	C972.755066,91.293655 943.626343,91.294266 914.497681,91.294243 
	C912.717773,91.294243 910.937866,91.294243 908.906799,91.294243 
	C908.906799,97.105545 908.906799,102.325844 908.906799,107.779030 
	C942.172241,107.779030 975.076111,107.779030 1008.416321,107.779030 
	C1008.532532,106.160362 1008.635681,104.724129 1008.738953,102.352333 
M980.500000,42.062107 
	C989.745361,42.062107 998.990723,42.062107 1008.347656,42.062107 
	C1008.347656,36.080017 1008.347656,30.869221 1008.347656,25.468901 
	C975.098694,25.468901 942.237244,25.468901 908.740295,25.468901 
	C908.740295,29.314110 909.013000,32.943974 908.670227,36.514744 
	C908.256592,40.822823 909.593628,42.221832 914.124451,42.171272 
	C935.914001,41.928135 957.707764,42.062084 980.500000,42.062107 
M941.500000,176.100510 
	C963.725830,176.100510 985.951660,176.100510 1008.387024,176.100510 
	C1008.387024,170.252838 1008.387024,165.188248 1008.387024,160.110535 
	C975.053833,160.110535 942.051697,160.110535 909.187378,160.110535 
	C909.187378,165.619965 909.187378,170.672928 909.187378,176.100601 
	C919.909790,176.100601 930.204895,176.100601 941.500000,176.100510 
z"/>
<path fill="#383A8E" opacity="1.000000" stroke="none" 
	d="
M699.015259,61.026569 
	C714.392517,90.029144 714.030640,118.259064 695.699707,145.353867 
	C683.329346,163.638412 665.253113,173.404999 643.580078,176.132645 
	C615.608948,179.652954 590.951904,172.645325 571.729492,151.071503 
	C539.593872,115.004852 548.192383,48.151321 603.854248,29.078943 
	C633.685364,18.857395 661.802734,23.629698 685.924988,44.951122 
	C690.947388,49.390377 694.568298,55.415211 699.015259,61.026569 
M628.826416,41.211025 
	C626.838501,41.407562 624.844604,41.556622 622.863586,41.807613 
	C576.884644,47.633022 559.709045,95.471298 578.125793,130.137100 
	C589.955872,152.404938 615.928467,163.850983 643.395508,159.060120 
	C684.660889,151.862549 701.680542,109.663261 686.635559,75.957657 
	C675.844177,51.781586 655.711060,41.309299 628.826416,41.211025 
z"/>
<path fill="#4447AF" opacity="1.000000" stroke="none" 
	d="
M810.383301,158.702667 
	C827.218384,155.940079 841.353821,149.296402 851.229431,135.338211 
	C871.172058,107.151566 865.346497,51.789295 812.287598,43.370667 
	C801.201782,41.611732 789.709717,42.265160 778.400635,42.100452 
	C765.583252,41.913784 752.761169,42.057369 739.486084,42.057369 
	C739.486084,36.533672 739.486084,31.303331 739.486084,25.854782 
	C739.677307,25.756397 740.102112,25.345541 740.524536,25.347963 
	C763.512756,25.479834 786.610840,24.285992 809.462524,26.134777 
	C842.081299,28.773752 865.929688,45.720573 875.692810,77.595047 
	C888.895203,120.697792 866.330444,164.080017 819.494385,173.927643 
	C812.221863,175.456757 804.628845,175.892944 797.170227,176.018677 
	C779.677307,176.313583 762.176025,176.114105 744.678162,176.114716 
	C743.041443,176.114777 741.404663,176.114716 739.399170,176.114716 
	C739.399170,149.766983 739.399170,123.853027 739.399170,97.132385 
	C744.349548,97.132385 749.453857,96.907921 754.501648,97.341705 
	C755.398071,97.418739 756.714172,100.226990 756.728638,101.784393 
	C756.888855,118.947472 756.829651,136.112625 756.830017,153.277206 
	C756.830078,155.080048 756.830078,156.882874 756.830078,158.776123 
	C774.812500,158.776123 792.377197,158.776123 810.383301,158.702667 
z"/>
<path fill="#121228" opacity="1.000000" stroke="none" 
	d="
M234.000336,159.590622 
	C250.950378,159.590668 267.400391,159.590668 283.984070,159.590668 
	C283.984070,165.283249 283.984070,170.389069 283.984070,175.808075 
	C243.191849,175.808075 202.617981,175.808075 161.656067,175.808075 
	C161.114182,169.754700 160.804016,164.434509 165.125397,158.978226 
	C194.710419,121.623451 223.935257,83.983391 253.265625,46.427032 
	C254.138153,45.309811 254.894562,44.101910 256.200134,42.224403 
	C224.793076,42.224403 194.228256,42.224403 163.232147,42.224403 
	C163.232147,36.398323 163.232147,31.054134 163.232147,25.536501 
	C202.781693,25.536501 242.189987,25.536501 281.715973,25.536501 
	C282.738434,32.374828 282.087860,38.004032 277.514374,43.770496 
	C248.732620,80.059746 220.376099,116.686256 191.886490,153.207123 
	C190.497787,154.987305 189.179077,156.822067 187.111420,159.590576 
	C203.342468,159.590576 218.421402,159.590576 234.000336,159.590622 
z"/>
<path fill="#2B2D6C" opacity="1.000000" stroke="none" 
	d="
M508.631042,174.689423 
	C485.114075,179.622559 462.988068,177.260727 442.856628,164.377594 
	C423.791412,152.176788 413.113434,134.227234 410.110321,111.887360 
	C407.590576,93.142876 410.451355,75.243607 420.970428,59.224510 
	C436.834290,35.065895 459.906403,24.096470 488.362366,24.291161 
	C509.514557,24.435881 528.227173,31.050171 543.121216,47.550369 
	C538.941101,50.933899 534.873596,54.226292 530.390930,57.854694 
	C517.212585,44.424706 499.207123,39.315487 478.903900,41.850807 
	C463.629822,43.758129 450.610992,50.272591 440.525360,62.144062 
	C421.308624,84.763535 422.626404,120.804016 443.477539,142.608887 
	C462.291016,162.282867 505.510529,170.098892 531.643555,142.624100 
	C535.439209,146.221832 539.238403,149.822861 543.135986,153.517166 
	C533.868530,164.290573 522.268616,170.762589 508.631042,174.689423 
z"/>
<path fill="#060606" opacity="1.000000" stroke="none" 
	d="
M48.594437,124.686272 
	C41.203838,140.938110 33.932491,156.828796 26.812803,172.787155 
	C25.717056,175.243210 24.447039,176.393204 21.627068,176.255005 
	C16.823198,176.019562 11.999431,176.190140 6.435259,176.190140 
	C7.110021,174.340866 7.498501,172.987778 8.080194,171.723602 
	C29.924746,124.249779 51.820049,76.799225 73.570442,29.282335 
	C74.969643,26.225576 76.685837,25.564346 79.883041,25.110685 
	C87.915154,23.970980 91.657478,27.149824 94.973763,34.526558 
	C115.582619,80.368797 136.798447,125.938148 157.797913,171.604919 
	C158.397293,172.908371 158.829544,174.288666 159.548782,176.184021 
	C153.638611,176.184021 148.307587,176.481354 143.048904,175.995621 
	C141.548828,175.857071 139.713791,173.695648 138.953171,172.039032 
	C125.203575,142.093292 111.599747,112.080658 97.954109,82.087166 
	C93.082047,71.378250 88.181747,60.682182 82.857269,49.023216 
	C71.188751,74.802597 59.976048,99.574928 48.594437,124.686272 
z"/>
<path fill="#1C1D47" opacity="1.000000" stroke="none" 
	d="
M309.550659,97.999817 
	C309.550598,73.570259 309.550598,49.640713 309.550598,25.458828 
	C315.488220,25.458828 320.920166,25.458828 326.751648,25.458828 
	C326.751648,75.481369 326.751648,125.464943 326.751648,175.786575 
	C321.269165,175.786575 315.714996,175.786575 309.550751,175.786575 
	C309.550751,149.965912 309.550751,124.232864 309.550659,97.999817 
z"/>
<path fill="#5356D2" opacity="1.000000" stroke="none" 
	d="
M1008.738892,102.820114 
	C1008.635681,104.724129 1008.532532,106.160362 1008.416321,107.779030 
	C975.076111,107.779030 942.172241,107.779030 908.906799,107.779030 
	C908.906799,102.325844 908.906799,97.105545 908.906799,91.294243 
	C910.937866,91.294243 912.717773,91.294243 914.497681,91.294243 
	C943.626343,91.294266 972.755066,91.293655 1001.883728,91.294777 
	C1008.738281,91.295036 1008.738281,91.297707 1008.738892,98.357513 
	C1008.739014,99.689117 1008.738953,101.020729 1008.738892,102.820114 
z"/>
<path fill="#5255D2" opacity="1.000000" stroke="none" 
	d="
M980.000000,42.062138 
	C957.707764,42.062084 935.914001,41.928135 914.124451,42.171272 
	C909.593628,42.221832 908.256592,40.822823 908.670227,36.514744 
	C909.013000,32.943974 908.740295,29.314110 908.740295,25.468901 
	C942.237244,25.468901 975.098694,25.468901 1008.347656,25.468901 
	C1008.347656,30.869221 1008.347656,36.080017 1008.347656,42.062107 
	C998.990723,42.062107 989.745361,42.062107 980.000000,42.062138 
z"/>
<path fill="#4E51D1" opacity="1.000000" stroke="none" 
	d="
M941.000000,176.100555 
	C930.204895,176.100601 919.909790,176.100601 909.187378,176.100601 
	C909.187378,170.672928 909.187378,165.619965 909.187378,160.110535 
	C942.051697,160.110535 975.053833,160.110535 1008.387024,160.110535 
	C1008.387024,165.188248 1008.387024,170.252838 1008.387024,176.100510 
	C985.951660,176.100510 963.725830,176.100510 941.000000,176.100555 
z"/>
<path fill="#FEFEFE" opacity="0.000000" stroke="none" 
	d="
M629.280212,41.193466 
	C655.711060,41.309299 675.844177,51.781586 686.635559,75.957657 
	C701.680542,109.663261 684.660889,151.862549 643.395508,159.060120 
	C615.928467,163.850983 589.955872,152.404938 578.125793,130.137100 
	C559.709045,95.471298 576.884644,47.633022 622.863586,41.807613 
	C624.844604,41.556622 626.838501,41.407562 629.280212,41.193466 
z"/>
</svg>